<svg width="17" height="17" viewBox="0 0 17 17" fill="none" xmlns="http://www.w3.org/2000/svg">
<path d="M13.1043 8.85417C13.0918 7.33333 14.0293 6.125 15.4168 5.45833C14.6668 4.375 13.4793 3.75 12.1668 3.70833C10.7918 3.58333 9.41683 4.58333 8.72933 4.58333C8.04183 4.58333 6.91683 3.75 5.79183 3.75C3.66683 3.79167 1.41683 5.45833 1.41683 8.85417C1.41683 10.0417 1.66683 11.2708 2.16683 12.5417C2.79183 14.0833 4.79183 17.5 6.91683 17.4583C8.00016 17.4167 8.37516 16.7083 9.75016 16.7083C11.1252 16.7083 11.4585 17.4583 12.5835 17.4167C14.7085 17.375 16.5418 14.25 17.1668 12.7083C14.7085 11.5417 13.1043 10.2083 13.1043 8.85417ZM11.0418 2.45833C11.6668 1.66667 12.0835 0.583333 11.9585 -0.5C11.0835 -0.458333 10.0418 0.0416667 9.37516 0.791667C8.75016 1.5 8.29183 2.58333 8.41683 3.66667C9.37516 3.75 10.3752 3.20833 11.0418 2.45833Z" fill="black"/>
</svg>